<svg width="169" height="24" viewBox="0 0 169 24" fill="none" xmlns="http://www.w3.org/2000/svg">
<g clip-path="url(#clip0_2014_414)">
<path d="M8.52553 12L6.50953 13.984L0.685531 8.15999C0.429531 7.90399 0.269531 7.51999 0.269531 7.13599V5.08799C0.269531 4.60799 0.429531 4.15999 0.781531 3.80799L3.27753 1.31199C3.59753 0.991989 4.04553 0.799988 4.52553 0.799988H16.6215V3.67999H3.91753C3.50153 3.67999 3.18153 3.99999 3.18153 4.38399V6.65599L8.52553 12ZM12.5255 23.2H0.429531V20.32H13.1335C13.5495 20.32 13.8695 20 13.8695 19.616V17.344L8.52553 12L10.5095 10.016L16.3335 15.84C16.6215 16.128 16.7815 16.48 16.7815 16.864V18.912C16.7815 19.392 16.6215 19.84 16.2695 20.192L13.7735 22.688C13.4535 23.008 13.0055 23.2 12.5255 23.2Z" fill="currentColor"/>
<path d="M30.4755 10.144H23.3395C22.8595 10.144 22.6675 9.95199 22.3475 9.63199L19.8515 7.13599C19.4995 6.78399 19.3395 6.33599 19.3395 5.85599V2.36799H22.2515V6.55999C22.2515 6.94399 22.5715 7.26399 22.9875 7.26399H30.4755V10.144ZM22.9235 23.2C22.6355 23.2 22.3475 23.072 22.1235 22.848L19.6275 20.352C19.4675 20.192 19.3395 19.968 19.3395 19.712V10.624H22.2515V20.32L28.7475 13.824L30.7635 15.808L23.7235 22.848C23.4995 23.072 23.2115 23.2 22.9235 23.2Z" fill="currentColor"/>
<path d="M44.0998 23.2H37.2518C36.7718 23.2 36.3238 23.008 36.0038 22.688L33.5078 20.192C33.1558 19.84 32.9958 19.392 32.9958 18.912V11.328C32.9958 10.848 33.1558 10.4 33.5078 10.048L36.0038 7.55199C36.3238 7.23199 36.7718 7.03999 37.2518 7.03999H44.0998C44.5798 7.03999 45.0278 7.23199 45.3478 7.55199L47.8438 10.048C48.1958 10.4 48.3558 10.848 48.3558 11.328V18.912C48.3558 19.392 48.1958 19.84 47.8438 20.192L45.3478 22.688C45.0278 23.008 44.5798 23.2 44.0998 23.2ZM36.6438 20.32H44.7078C45.1238 20.32 45.4438 20 45.4438 19.616V10.624C45.4438 10.24 45.1238 9.91999 44.7078 9.91999H36.6438C36.2278 9.91999 35.9078 10.24 35.9078 10.624V19.616C35.9078 20 36.2278 20.32 36.6438 20.32Z" fill="currentColor"/>
<path d="M54.1578 23.2H51.2458V7.03999H54.1578V23.2ZM66.4458 23.2H63.5338V9.91999L56.9098 16.544L54.8938 14.56L62.0618 7.39199C62.2858 7.16799 62.5738 7.03999 62.8618 7.03999C63.1498 7.03999 63.4378 7.16799 63.6618 7.39199L66.1578 9.88799C66.3178 10.048 66.4458 10.272 66.4458 10.528V23.2Z" fill="currentColor"/>
<path d="M83.3555 23.2H73.5955C73.1155 23.2 72.6675 23.008 72.3475 22.688L69.8515 20.192C69.4995 19.84 69.3395 19.392 69.3395 18.912V11.328C69.3395 10.848 69.4995 10.4 69.8515 10.048L72.3475 7.55199C72.6675 7.23199 73.1155 7.03999 73.5955 7.03999H80.6035C80.8595 7.03999 81.0835 7.16799 81.2435 7.32799L83.7395 9.82399C83.9635 10.048 84.0915 10.336 84.0915 10.624C84.0915 10.912 83.9635 11.2 83.7395 11.424L76.2195 18.944L74.2035 16.96L81.2435 9.91999H72.9875C72.5715 9.91999 72.2515 10.24 72.2515 10.624V19.616C72.2515 20 72.5715 20.32 72.9875 20.32H83.3555V23.2Z" fill="currentColor"/>
<path d="M102.276 12L100.26 13.984L94.4355 8.15999C94.1795 7.90399 94.0195 7.51999 94.0195 7.13599V5.08799C94.0195 4.60799 94.1795 4.15999 94.5315 3.80799L97.0275 1.31199C97.3475 0.991989 97.7955 0.799988 98.2755 0.799988H110.372V3.67999H97.6675C97.2515 3.67999 96.9315 3.99999 96.9315 4.38399V6.65599L102.276 12ZM106.276 23.2H94.1795V20.32H106.884C107.3 20.32 107.62 20 107.62 19.616V17.344L102.276 12L104.26 10.016L110.084 15.84C110.372 16.128 110.532 16.48 110.532 16.864V18.912C110.532 19.392 110.372 19.84 110.02 20.192L107.524 22.688C107.204 23.008 106.756 23.2 106.276 23.2Z" fill="currentColor"/>
<path d="M116.002 23.2H113.09V0.799988H116.002V23.2ZM128.29 23.2H125.378V19.808C125.378 19.424 125.058 19.104 124.642 19.104H122.85L120.866 19.136C120.61 19.136 120.386 19.008 120.226 18.848L117.73 16.352C117.506 16.128 117.378 15.84 117.378 15.552C117.378 15.264 117.506 14.976 117.73 14.752L125.442 7.07199L127.426 9.08799L120.258 16.224H124.034C124.514 16.224 124.962 16.416 125.282 16.736L127.778 19.232C128.13 19.584 128.29 20.032 128.29 20.512V23.2Z" fill="currentColor"/>
<path d="M133.528 0.799988V5.82399L131 3.26399C130.744 3.03999 130.616 2.65599 130.616 2.30399V0.799988H133.528ZM133.752 23.2H130.84V7.03999L133.368 9.56799C133.624 9.82399 133.752 10.176 133.752 10.528V23.2Z" fill="currentColor"/>
<path d="M139.533 23.2H136.621V7.03999H139.533V23.2ZM151.821 23.2H148.909V9.91999L142.285 16.544L140.269 14.56L147.437 7.39199C147.661 7.16799 147.949 7.03999 148.237 7.03999C148.525 7.03999 148.813 7.16799 149.037 7.39199L151.533 9.88799C151.693 10.048 151.821 10.272 151.821 10.528V23.2Z" fill="currentColor"/>
<path d="M155.675 7.03999H168.731V9.91999H156.347L161.563 15.136L159.579 17.12L154.875 12.416C154.683 12.224 154.555 11.936 154.555 11.648V8.03199C154.555 7.77599 154.683 7.51999 154.875 7.35999C155.067 7.16799 155.355 7.03999 155.675 7.03999ZM154.395 23.2V20.32H166.747L161.563 15.136L163.547 13.152L168.251 17.856C168.443 18.048 168.571 18.336 168.571 18.624V22.208C168.571 22.464 168.443 22.72 168.251 22.88C168.059 23.072 167.771 23.2 167.451 23.2H154.395Z" fill="currentColor"/>
</g>
<defs>
<clipPath id="clip0_2014_414">
<rect width="168.461" height="22.4" fill="currentColor" transform="translate(0.269531 0.799988)"/>
</clipPath>
</defs>
</svg>
