<svg width="42" height="64" viewBox="0 0 42 64" fill="none" xmlns="http://www.w3.org/2000/svg">
<path d="M41.5513 56.658L41.4615 63.5H0C0.179487 60.0346 0.717949 57.0134 1.61538 54.3477C2.51282 51.7708 3.94872 49.4605 5.83333 47.3279C7.71795 45.1953 9.51282 43.5071 11.3077 42.0853C13.1026 40.7525 15.7051 39.0642 18.9359 37.0205C24.141 33.8216 27.4615 31.4224 29.0769 29.823C32.4872 26.6241 34.1026 22.981 34.1026 18.9824C34.1026 15.5169 33.0256 12.6735 30.6923 10.452C28.4487 8.23061 25.4872 7.07546 21.8077 7.07546C17.5 7.07546 14.359 8.58604 12.4744 11.6072C10.5897 14.6284 9.60256 18.3604 9.42308 22.8921H1.70513V21.2038C1.70513 14.9838 3.58974 10.0078 7.35897 6.18688C11.1282 2.45487 16.0641 0.5 22.1667 0.5C28.2692 0.5 33.0256 2.18829 36.6154 5.47602C40.2051 8.85261 42 13.2955 42 18.8047C42 21.2038 41.641 23.4252 40.8333 25.5578C40.0256 27.6904 39.1282 29.3787 38.141 30.8004C37.1538 32.2221 35.6282 33.7327 33.6538 35.3322C31.6795 36.9316 29.9744 38.1756 28.6282 39.0642C27.3718 39.9528 25.4872 41.1079 22.9744 42.5296C18.1282 45.4619 14.8077 47.6834 13.1923 49.2828C10.9487 51.5931 9.51282 53.9922 8.88461 56.658H41.5513Z" fill="url(#paint0_linear_308_1885)"/>
<defs>
<linearGradient id="paint0_linear_308_1885" x1="0" y1="32" x2="49.1365" y2="32" gradientUnits="userSpaceOnUse">
<stop stop-color="white"/>
<stop offset="1" stop-color="#AAAAAA"/>
</linearGradient>
</defs>
</svg>
