<svg width="43" height="64" viewBox="0 0 43 64" fill="none" xmlns="http://www.w3.org/2000/svg">
<path d="M1.42739 20.2711C1.60581 13.8091 3.39004 8.852 6.8693 5.3112C10.3485 1.7704 15.2552 0 21.5 0C27.0311 0 31.5809 1.50484 34.971 4.51452C38.361 7.5242 40.056 11.4191 40.056 16.3762C40.056 19.2974 39.2531 21.953 37.7365 24.2545C36.2199 26.556 34.0788 28.3264 31.4025 29.4772C34.971 30.2739 37.7365 32.0443 39.8776 34.7884C41.9295 37.444 43 40.7192 43 44.6141C43 50.3679 41.0373 55.0595 36.9336 58.6003C32.8299 62.1411 27.5664 64 21.1432 64C14.7199 64 9.54564 62.2296 5.70954 58.6888C1.87344 55.148 0 50.4564 0 44.5256V43.3748H7.49378C7.6722 47.8008 8.92116 51.2531 11.3299 53.7317C13.6494 56.1217 16.9502 57.361 21.2324 57.361C25.2469 57.361 28.5477 56.2102 31.0456 53.9087C33.5436 51.6072 34.7925 48.686 34.7925 45.0567C34.7925 41.4274 33.5436 38.5062 31.0456 36.2932C28.5477 34.1687 25.0685 33.018 20.7863 33.018C19.7158 33.018 18.3776 33.195 16.6826 33.3721V26.9986C17.5747 27.0871 18.3776 27.0871 19.2697 27.0871C23.195 27.0871 26.3174 26.2019 28.6369 24.343C30.9564 22.4841 32.027 19.917 32.027 16.7303C32.027 13.7206 31.0456 11.242 29.083 9.2946C27.1203 7.43568 24.444 6.46196 21.1432 6.46196C17.3071 6.46196 14.3631 7.70124 12.222 10.0913C10.0809 12.4813 8.92116 15.8451 8.83195 20.2711H1.42739Z" fill="url(#paint0_linear_308_1890)"/>
<defs>
<linearGradient id="paint0_linear_308_1890" x1="0" y1="32" x2="50.3064" y2="32" gradientUnits="userSpaceOnUse">
<stop stop-color="white"/>
<stop offset="1" stop-color="#AAAAAA"/>
</linearGradient>
</defs>
</svg>
