<svg xmlns="http://www.w3.org/2000/svg" fill="none" viewBox="0 0 24 24"><g clip-path="url(#a)"><path fill="#020406" d="M0 1.72C0 .77.789 0 1.762 0h20.324c.974 0 1.763.77 1.763 1.72v20.56c0 .95-.79 1.72-1.763 1.72H1.762C.79 24 0 23.23 0 22.28z"/><g clip-path="url(#b)"><path fill="#fff" d="M17.698 6.597a12.4 12.4 0 0 0-3.053-.947.05.05 0 0 0-.05.023 9 9 0 0 0-.38.781 11.4 11.4 0 0 0-3.429 0 8 8 0 0 0-.386-.78.05.05 0 0 0-.049-.024 12.3 12.3 0 0 0-3.053.947.04.04 0 0 0-.02.018C5.333 9.52 4.8 12.354 5.062 15.152a.05.05 0 0 0 .02.035 12.4 12.4 0 0 0 3.745 1.894q.032.008.052-.018.434-.59.767-1.246a.05.05 0 0 0-.026-.066 8 8 0 0 1-1.17-.558.048.048 0 0 1-.005-.08q.119-.088.232-.182a.05.05 0 0 1 .049-.006c2.455 1.12 5.112 1.12 7.538 0a.05.05 0 0 1 .05.006q.112.094.232.183a.048.048 0 0 1-.004.08 7.7 7.7 0 0 1-1.17.556.05.05 0 0 0-.026.067q.339.655.766 1.246a.05.05 0 0 0 .052.018 12.4 12.4 0 0 0 3.752-1.894.05.05 0 0 0 .02-.034c.312-3.236-.525-6.046-2.218-8.538a.04.04 0 0 0-.02-.018m-7.686 6.851c-.739 0-1.348-.678-1.348-1.512 0-.833.597-1.511 1.348-1.511.757 0 1.36.684 1.348 1.511 0 .834-.597 1.512-1.348 1.512m4.984 0c-.739 0-1.348-.678-1.348-1.512 0-.833.598-1.511 1.348-1.511.757 0 1.36.684 1.349 1.511 0 .834-.592 1.512-1.348 1.512"/></g></g><defs><clipPath id="a"><rect width="24" height="24" fill="#fff" rx="8"/></clipPath><clipPath id="b"><path fill="#fff" d="M5 4h15v15H5z"/></clipPath></defs></svg>