<svg xmlns="http://www.w3.org/2000/svg" fill="none" viewBox="0 0 24 24"><g clip-path="url(#a)"><path fill="#020406" d="M22.62 23.936c.732 0 1.316-.593 1.316-1.316V1.372c0-.732-.593-1.316-1.316-1.316H1.372A1.32 1.32 0 0 0 .057 1.372V22.62c0 .732.593 1.316 1.315 1.316z"/><path fill="#fff" d="M16.056 23.467v-8.515h2.752l.41-3.318h-3.162V9.518c0-.964.254-1.613 1.585-1.613h1.693V4.928c-.296-.043-1.298-.128-2.465-.128-2.44 0-4.108 1.544-4.108 4.385v2.449h-2.76v3.318h2.76v8.515z"/></g><defs><clipPath id="a"><rect width="24" height="24" fill="#fff" rx="8"/></clipPath></defs></svg>