<svg xmlns="http://www.w3.org/2000/svg" fill="none" viewBox="0 0 25 17"><g clip-path="url(#a)"><rect width="25" height="17" fill="#1A47B8" rx="3"/><path fill="#fff" fill-rule="evenodd" d="M2.66 0H0v2.833L22.326 17H25v-2.833z" clip-rule="evenodd"/><path fill="#F93939" d="M.887 0 25 15.34V17h-.866L0 1.644V0z"/><path fill="#fff" fill-rule="evenodd" d="M22.62 0H25v2.833S9.536 12.272 2.381 17H.001v-2.833z" clip-rule="evenodd"/><path fill="#F93939" d="M25 0h-.807L0 15.353V17h.887L25 1.656z"/><path fill="#fff" fill-rule="evenodd" d="M9.092 0h6.837v5.244H25v6.509h-9.071V17H9.092v-5.247H0v-6.51h9.092z" clip-rule="evenodd"/><path fill="#F93939" fill-rule="evenodd" d="M10.526 0h3.948v6.538H25v3.923H14.474V17h-3.948v-6.539H0V6.538h10.526z" clip-rule="evenodd"/></g><defs><clipPath id="a"><rect width="25" height="17" fill="#fff" rx="3"/></clipPath></defs></svg>