<svg xmlns="http://www.w3.org/2000/svg" fill="none" viewBox="0 0 24 24"><rect width="24" height="24" fill="#020406" rx="8"/><g clip-path="url(#a)"><path fill="#fff" d="M12 5.987c1.958 0 2.19.008 2.963.043.715.033 1.104.152 1.362.253.342.133.587.292.843.548.257.257.416.501.549.843.1.259.22.647.252 1.362.036.773.043 1.005.043 2.963s-.007 2.19-.043 2.964c-.032.715-.152 1.103-.252 1.361a2.3 2.3 0 0 1-.549.844c-.256.256-.5.415-.843.548-.258.1-.647.22-1.362.253-.773.035-1.005.042-2.963.042s-2.19-.007-2.963-.042c-.715-.033-1.103-.152-1.362-.253a2.3 2.3 0 0 1-.843-.548 2.3 2.3 0 0 1-.549-.844c-.1-.258-.22-.646-.252-1.361-.035-.774-.043-1.005-.043-2.964 0-1.958.008-2.19.043-2.963.032-.715.152-1.103.252-1.362.133-.342.292-.586.549-.843.257-.256.5-.415.843-.548.259-.1.647-.22 1.362-.253.773-.035 1.005-.043 2.963-.043m0-1.321c-1.992 0-2.241.008-3.023.044-.781.036-1.314.16-1.78.341a3.6 3.6 0 0 0-1.3.846 3.6 3.6 0 0 0-.845 1.299c-.182.466-.305 1-.341 1.78-.036.782-.044 1.032-.044 3.023s.008 2.242.044 3.024c.036.78.16 1.314.34 1.78.188.482.439.891.847 1.299.407.408.816.658 1.299.846.466.181.999.305 1.78.34.782.036 1.031.045 3.023.045s2.242-.009 3.024-.044c.78-.036 1.313-.16 1.78-.341a3.6 3.6 0 0 0 1.299-.846c.407-.408.658-.817.845-1.299.182-.466.306-1 .341-1.78.036-.782.044-1.032.044-3.024s-.008-2.241-.044-3.023c-.035-.78-.16-1.314-.34-1.78a3.6 3.6 0 0 0-.846-1.3 3.6 3.6 0 0 0-1.3-.845c-.466-.181-.999-.305-1.78-.34-.781-.037-1.031-.045-3.023-.045m0 3.568a3.766 3.766 0 1 0 0 7.531 3.766 3.766 0 0 0 0-7.531m0 6.21a2.444 2.444 0 1 1 0-4.89 2.444 2.444 0 0 1 0 4.89m4.795-6.36a.88.88 0 1 1-1.76 0 .88.88 0 0 1 1.76 0"/></g><defs><clipPath id="a"><path fill="#fff" d="M4.666 4.667h14.667v14.667H4.666z"/></clipPath></defs></svg>