<svg xmlns="http://www.w3.org/2000/svg" fill="none" viewBox="0 0 24 24"><g clip-path="url(#a)"><path fill="#020406" d="M0 1.72C0 .77.79 0 1.764 0h20.324c.973 0 1.762.77 1.762 1.72v20.56c0 .95-.789 1.72-1.762 1.72H1.763C.79 24 .001 23.23.001 22.28z"/><path fill="#fff" d="m10.282 9.247.001.05-2.474 3.657a2.7 2.7 0 0 0-1.184.213q-.252.106-.473.255L.72 11.146s-.126 2.104.398 3.672l3.84 1.613a2.84 2.84 0 0 0 1.656 2.016c1.427.606 3.072-.085 3.666-1.538a2.9 2.9 0 0 0 .216-1.175l3.54-2.574.086.002c2.118 0 3.84-1.757 3.84-3.915s-1.722-3.914-3.84-3.914-3.84 1.756-3.84 3.914m-.593 7.41c-.46 1.122-1.727 1.654-2.829 1.187a2.17 2.17 0 0 1-1.113-1.08l1.25.527a1.583 1.583 0 0 0 2.082-.874 1.633 1.633 0 0 0-.857-2.122l-1.293-.545a2.12 2.12 0 0 1 1.595.025c.534.226.949.651 1.168 1.195a2.23 2.23 0 0 1-.003 1.687m4.433-4.802c-1.41 0-2.558-1.17-2.558-2.608 0-1.437 1.148-2.607 2.558-2.607s2.559 1.17 2.559 2.607-1.148 2.608-2.56 2.608m-1.917-2.612c0-1.082.86-1.96 1.921-1.96s1.922.878 1.922 1.96-.86 1.959-1.922 1.959c-1.06 0-1.921-.877-1.921-1.959"/></g><defs><clipPath id="a"><rect width="24" height="24" fill="#fff" rx="8"/></clipPath></defs></svg>