<svg xmlns="http://www.w3.org/2000/svg" fill="none" viewBox="0 0 24 24"><rect width="22.8" height="22.8" x=".6" y=".6" stroke="currentColor" stroke-width="1.2" rx="11.4"/><path fill="currentColor" d="M12.055 9.027v.055L9.304 13.03a3.1 3.1 0 0 0-1.844.504l-6.044-2.457s-.14 2.272.443 3.966l4.273 1.741a3.09 3.09 0 0 0 1.842 2.177c1.588.656 3.419-.091 4.079-1.66.172-.41.252-.84.24-1.27l3.939-2.779.096.002c2.357 0 4.273-1.898 4.273-4.228S18.684 4.8 16.327 4.8s-4.272 1.896-4.272 4.227m-.66 8.002a2.42 2.42 0 0 1-3.148 1.283 2.38 2.38 0 0 1-1.239-1.167l1.391.57a1.78 1.78 0 0 0 2.317-.945 1.745 1.745 0 0 0-.954-2.292l-1.438-.588a2.42 2.42 0 0 1 1.775.027 2.374 2.374 0 0 1 1.296 3.112m4.933-5.185c-1.57 0-2.847-1.264-2.847-2.817 0-1.552 1.277-2.816 2.847-2.816s2.847 1.264 2.847 2.816c0 1.553-1.278 2.817-2.847 2.817m-2.133-2.822c0-1.168.957-2.116 2.137-2.116s2.139.948 2.139 2.116a2.127 2.127 0 0 1-2.139 2.116 2.127 2.127 0 0 1-2.137-2.116"/></svg>