<svg xmlns="http://www.w3.org/2000/svg" fill="none" viewBox="0 0 24 24"><g clip-path="url(#a)"><path fill="#020406" d="M0 1.72C0 .77.789 0 1.762 0h20.324c.974 0 1.763.77 1.763 1.72v20.56c0 .95-.79 1.72-1.763 1.72H1.762C.79 24 0 23.23 0 22.28z"/><path fill="#fff" d="M15.67 4h-2.528v10.217c0 1.218-.972 2.218-2.182 2.218s-2.182-1-2.182-2.218c0-1.195.95-2.174 2.117-2.217V9.435c-2.57.043-4.645 2.152-4.645 4.782C6.25 16.87 8.367 19 10.982 19c2.614 0 4.732-2.152 4.732-4.783V8.978a5.85 5.85 0 0 0 3.348 1.13V7.544c-1.9-.065-3.392-1.63-3.392-3.543"/></g><defs><clipPath id="a"><rect width="24" height="24" fill="#fff" rx="8"/></clipPath></defs></svg>