<svg width="45" height="45" viewBox="0 0 45 45" fill="none" xmlns="http://www.w3.org/2000/svg">
<g clip-path="url(#clip0_2039_2286)">
<path d="M22.75 11.4775C26.4214 11.4775 26.8562 11.4915 28.3061 11.5577C29.6467 11.6188 30.3748 11.8428 30.8594 12.0311C31.5011 12.2805 31.9592 12.5785 32.4403 13.0597C32.9215 13.5408 33.2195 13.9989 33.4689 14.6406C33.6572 15.1252 33.8812 15.8533 33.9423 17.1938C34.0085 18.6438 34.0225 19.0786 34.0225 22.75C34.0225 26.4215 34.0085 26.8563 33.9423 28.3062C33.8812 29.6468 33.6572 30.3748 33.4689 30.8594C33.2195 31.5012 32.9215 31.9593 32.4403 32.4404C31.9592 32.9215 31.5011 33.2195 30.8594 33.4689C30.3748 33.6572 29.6467 33.8812 28.3061 33.9424C26.8565 34.0086 26.4216 34.0225 22.75 34.0225C19.0783 34.0225 18.6435 34.0086 17.1938 33.9424C15.8532 33.8812 15.1252 33.6572 14.6406 33.4689C13.9988 33.2195 13.5407 32.9215 13.0596 32.4404C12.5785 31.9593 12.2805 31.5012 12.0311 30.8594C11.8428 30.3748 11.6188 29.6468 11.5576 28.3062C11.4914 26.8563 11.4775 26.4215 11.4775 22.75C11.4775 19.0786 11.4914 18.6438 11.5576 17.1939C11.6188 15.8533 11.8428 15.1252 12.0311 14.6406C12.2805 13.9989 12.5785 13.5408 13.0596 13.0597C13.5407 12.5785 13.9988 12.2805 14.6406 12.0311C15.1252 11.8428 15.8532 11.6188 17.1938 11.5577C18.6437 11.4915 19.0785 11.4775 22.75 11.4775ZM22.75 9C19.0157 9 18.5475 9.01583 17.0809 9.08274C15.6173 9.14955 14.6178 9.38196 13.7432 9.72188C12.839 10.0733 12.0722 10.5434 11.3078 11.3078C10.5434 12.0722 10.0732 12.839 9.72183 13.7432C9.3819 14.6179 9.1495 15.6174 9.08269 17.0809C9.01577 18.5475 9 19.0157 9 22.75C9 26.4843 9.01577 26.9526 9.08269 28.4191C9.1495 29.8827 9.3819 30.8822 9.72183 31.7568C10.0732 32.661 10.5434 33.4278 11.3078 34.1922C12.0722 34.9566 12.839 35.4268 13.7432 35.7782C14.6178 36.1181 15.6173 36.3505 17.0809 36.4173C18.5475 36.4842 19.0157 36.5 22.75 36.5C26.4843 36.5 26.9525 36.4842 28.4191 36.4173C29.8826 36.3505 30.8821 36.1181 31.7568 35.7782C32.661 35.4268 33.4278 34.9566 34.1922 34.1922C34.9566 33.4278 35.4267 32.661 35.7781 31.7568C36.118 30.8822 36.3504 29.8827 36.4173 28.4191C36.4842 26.9526 36.5 26.4843 36.5 22.75C36.5 19.0157 36.4842 18.5475 36.4173 17.0809C36.3504 15.6174 36.118 14.6179 35.7781 13.7432C35.4267 12.839 34.9566 12.0722 34.1922 11.3078C33.4278 10.5434 32.661 10.0733 31.7568 9.72188C30.8821 9.38196 29.8826 9.14955 28.4191 9.08274C26.9525 9.01583 26.4843 9 22.75 9ZM22.75 15.6892C18.8504 15.6892 15.6891 18.8505 15.6891 22.75C15.6891 26.6496 18.8504 29.8109 22.75 29.8109C26.6495 29.8109 29.8108 26.6496 29.8108 22.75C29.8108 18.8505 26.6495 15.6892 22.75 15.6892ZM22.75 27.3334C20.2187 27.3334 18.1666 25.2813 18.1666 22.75C18.1666 20.2187 20.2187 18.1667 22.75 18.1667C25.2813 18.1667 27.3333 20.2187 27.3333 22.75C27.3333 25.2813 25.2813 27.3334 22.75 27.3334ZM31.7397 15.4102C31.7397 16.3215 31.001 17.0603 30.0898 17.0603C29.1785 17.0603 28.4397 16.3215 28.4397 15.4102C28.4397 14.499 29.1785 13.7603 30.0898 13.7603C31.001 13.7603 31.7397 14.499 31.7397 15.4102Z" fill="white"/>
</g>
<defs>
<clipPath id="clip0_2039_2286">
<rect width="27.5" height="27.5" fill="white" transform="translate(9 9)"/>
</clipPath>
</defs>
</svg>
