<svg width="45" height="45" viewBox="0 0 45 45" fill="none" xmlns="http://www.w3.org/2000/svg">
<g clip-path="url(#clip0_2039_2297)">
<path d="M28.0069 8H23.267V27.1576C23.267 29.4402 21.444 31.3152 19.1753 31.3152C16.9066 31.3152 15.0836 29.4402 15.0836 27.1576C15.0836 24.9158 16.8661 23.0815 19.0538 23V18.1902C14.2329 18.2717 10.3438 22.2255 10.3438 27.1576C10.3438 32.1305 14.3139 36.125 19.2158 36.125C24.1177 36.125 28.0878 32.0897 28.0878 27.1576V17.3342C29.8704 18.6386 32.058 19.413 34.3672 19.4538V14.644C30.8022 14.5217 28.0069 11.587 28.0069 8Z" fill="white"/>
</g>
<defs>
<clipPath id="clip0_2039_2297">
<rect width="28.125" height="28.125" fill="white" transform="translate(8 8)"/>
</clipPath>
</defs>
</svg>
