<svg width="45" height="45" viewBox="0 0 45 45" fill="none" xmlns="http://www.w3.org/2000/svg">
<path fill-rule="evenodd" clip-rule="evenodd" d="M36.294 14.3012C36.5164 13.5672 36.294 13.0334 35.3091 13.0334H32.0366C31.2105 13.0334 30.8292 13.5004 30.6068 14.0009C30.6068 14.0009 28.9229 18.2713 26.5717 21.0405C25.8092 21.8412 25.4597 22.1081 25.0467 22.1081C24.8242 22.1081 24.5383 21.8412 24.5383 21.1072V14.2678C24.5383 13.4004 24.2841 13 23.5851 13H18.438C17.9297 13 17.6119 13.4004 17.6119 13.8007C17.6119 14.6348 18.7875 14.835 18.9146 17.1704V22.2415C18.9146 23.3425 18.724 23.5427 18.3109 23.5427C17.1989 23.5427 14.4983 19.2389 12.8779 14.3345C12.5601 13.367 12.2424 13 11.4163 13H8.11203C7.15886 13 7 13.4671 7 13.9675C7 14.8683 8.11203 19.4057 12.1789 25.411C14.8795 29.5147 18.724 31.7166 22.1872 31.7166C24.2841 31.7166 24.5383 31.2162 24.5383 30.3821V27.2794C24.5383 26.2785 24.7289 26.1117 25.3962 26.1117C25.8727 26.1117 26.7306 26.3786 28.6687 28.347C30.8928 30.6824 31.274 31.75 32.5131 31.75H35.7857C36.7389 31.75 37.1837 31.2496 36.9295 30.282C36.6435 29.3145 35.5633 27.9133 34.1653 26.2451C33.4028 25.3109 32.259 24.2767 31.9095 23.7762C31.4329 23.109 31.56 22.8421 31.9095 22.2415C31.8777 22.2415 35.881 16.3029 36.294 14.3012Z" fill="white"/>
</svg>
