<svg width="45" height="45" viewBox="0 0 45 45" fill="none" xmlns="http://www.w3.org/2000/svg">
<g clip-path="url(#clip0_2039_2301)">
<path d="M31.809 12.8698C30.0164 12.0473 28.0941 11.4413 26.0843 11.0942C26.0477 11.0875 26.0111 11.1043 25.9922 11.1378C25.745 11.5775 25.4712 12.1511 25.2794 12.602C23.1177 12.2783 20.967 12.2783 18.8496 12.602C18.6578 12.1411 18.374 11.5775 18.1257 11.1378C18.1068 11.1054 18.0703 11.0886 18.0337 11.0942C16.0249 11.4402 14.1026 12.0462 12.3089 12.8698C12.2934 12.8765 12.2801 12.8877 12.2712 12.9022C8.62507 18.3495 7.62623 23.6629 8.11623 28.9104C8.11844 28.9361 8.13286 28.9606 8.15281 28.9763C10.5584 30.7429 12.8887 31.8154 15.1757 32.5263C15.2123 32.5375 15.2511 32.5241 15.2744 32.4939C15.8154 31.7552 16.2976 30.9762 16.7111 30.157C16.7355 30.109 16.7122 30.0521 16.6623 30.0331C15.8974 29.743 15.1691 29.3892 14.4684 28.9874C14.413 28.9551 14.4086 28.8758 14.4596 28.8378C14.607 28.7274 14.7545 28.6124 14.8953 28.4963C14.9207 28.4752 14.9562 28.4707 14.9862 28.4841C19.589 30.5856 24.5721 30.5856 29.1206 28.4841C29.1506 28.4696 29.1861 28.474 29.2127 28.4952C29.3535 28.6113 29.5009 28.7274 29.6495 28.8378C29.7005 28.8758 29.6971 28.9551 29.6417 28.9874C28.9411 29.397 28.2127 29.743 27.4467 30.032C27.3968 30.051 27.3746 30.109 27.399 30.157C27.8214 30.975 28.3036 31.754 28.8346 32.4928C28.8568 32.5241 28.8967 32.5375 28.9333 32.5263C31.2314 31.8154 33.5617 30.7429 35.9673 28.9763C35.9884 28.9606 36.0017 28.9372 36.0039 28.9115C36.5903 22.8448 35.0217 17.575 31.8456 12.9033C31.8378 12.8877 31.8245 12.8765 31.809 12.8698ZM17.3985 25.7152C16.0127 25.7152 14.8709 24.443 14.8709 22.8805C14.8709 21.3181 15.9906 20.0459 17.3985 20.0459C18.8174 20.0459 19.9482 21.3293 19.926 22.8805C19.926 24.443 18.8063 25.7152 17.3985 25.7152ZM26.7438 25.7152C25.3581 25.7152 24.2163 24.443 24.2163 22.8805C24.2163 21.3181 25.3359 20.0459 26.7438 20.0459C28.1629 20.0459 29.2936 21.3293 29.2715 22.8805C29.2715 24.443 28.1629 25.7152 26.7438 25.7152Z" fill="white"/>
</g>
<defs>
<clipPath id="clip0_2039_2301">
<rect width="28.125" height="28.125" fill="white" transform="translate(8 8)"/>
</clipPath>
</defs>
</svg>
