<svg width="45" height="45" viewBox="0 0 45 45" fill="none" xmlns="http://www.w3.org/2000/svg">
<path d="M18.3131 17.338C18.3131 17.3704 18.3131 17.4029 18.3147 17.4334L13.5837 24.2896C12.8173 24.2548 12.0483 24.3889 11.3191 24.6886C10.9976 24.8194 10.6964 24.98 10.4138 25.1654L0.0252383 20.8989C0.0252383 20.8989 4.58956e-06 24.5822 0 27.5L8.13077 30.8077C8.49952 32.4517 9.63 33.8938 11.2978 34.5875C14.0266 35.7249 17.1729 34.4285 18.3081 31.705C18.6035 30.9931 18.7412 30.2464 18.7213 29.5014L25.4906 24.6753C25.5453 24.677 25.6018 24.6786 25.6565 24.6786C29.7075 24.6786 33 21.384 33 17.338C33 13.2917 29.7075 10 25.6565 10C21.6072 10 18.3131 13.2917 18.3131 17.338ZM17.1779 31.2315C16.2994 33.3358 13.8754 34.3341 11.7685 33.4583C10.7965 33.0544 10.0626 32.3143 9.63929 31.4319L12.0299 32.4203C13.5837 33.0659 15.3664 32.3309 16.0123 30.7812C16.6601 29.2299 15.9251 27.4485 14.3721 26.8028L11.9009 25.7813C12.8545 25.4203 13.9385 25.4071 14.9513 25.8276C15.9724 26.2515 16.7647 27.0495 17.1846 28.0693C17.6044 29.0892 17.6028 30.215 17.1779 31.2315ZM25.6565 22.2283C22.9598 22.2283 20.7642 20.0346 20.7642 17.338C20.7642 14.6435 22.9598 12.4491 25.6565 12.4491C28.3549 12.4491 30.5505 14.6435 30.5505 17.338C30.5505 20.0346 28.3549 22.2283 25.6565 22.2283ZM21.9906 17.3305C21.9906 15.3019 23.6369 13.6566 25.6648 13.6566C27.6944 13.6566 29.3407 15.3019 29.3407 17.3305C29.3407 19.3593 27.6944 21.0032 25.6648 21.0032C23.6369 21.0032 21.9906 19.3593 21.9906 17.3305Z" fill="white"/>
</svg>
