<svg xmlns="http://www.w3.org/2000/svg" fill="none" viewBox="0 0 24 24"><g clip-path="url(#a)"><path fill="#020406" d="M0 1.72C0 .77.787 0 1.761 0h20.324c.973 0 1.762.77 1.762 1.72v20.56c0 .95-.79 1.72-1.762 1.72H1.761c-.974 0-1.763-.77-1.763-1.72z"/><path fill="#fff" fill-rule="evenodd" d="M19.623 7.694c.118-.392 0-.676-.526-.676h-1.745c-.44 0-.644.249-.762.516 0 0-.899 2.277-2.152 3.754-.407.427-.594.57-.814.57-.119 0-.271-.143-.271-.534V7.676c0-.462-.136-.676-.508-.676H10.1a.43.43 0 0 0-.441.427c0 .445.627.552.695 1.797v2.705c0 .587-.102.694-.322.694-.593 0-2.034-2.296-2.898-4.911-.17-.516-.339-.712-.78-.712H4.593C4.084 7 4 7.25 4 7.516c0 .48.593 2.9 2.762 6.103 1.44 2.189 3.491 3.363 5.338 3.363 1.118 0 1.254-.267 1.254-.712v-1.654c0-.534.102-.623.457-.623.255 0 .712.142 1.746 1.192 1.186 1.246 1.39 1.815 2.05 1.815h1.746c.508 0 .745-.267.61-.783-.153-.516-.729-1.263-1.475-2.153-.406-.498-1.016-1.05-1.203-1.317-.254-.355-.186-.498 0-.818-.017 0 2.118-3.167 2.339-4.235" clip-rule="evenodd"/></g><defs><clipPath id="a"><rect width="24" height="24" fill="#fff" rx="8"/></clipPath></defs></svg>