<svg xmlns="http://www.w3.org/2000/svg" fill="none" viewBox="0 0 24 24"><g clip-path="url(#a)"><path fill="#020406" d="M0 1.72C0 .77.79 0 1.763 0h20.324c.973 0 1.762.77 1.762 1.72v20.56c0 .95-.79 1.72-1.762 1.72H1.762C.789 24 0 23.23 0 22.28z"/><g clip-path="url(#b)"><path fill="#fff" d="M16.454 5.19h2.108l-4.606 5.265 5.42 7.164h-4.244l-3.323-4.345-3.803 4.345h-2.11l4.928-5.631L5.625 5.19h4.35L12.98 9.16zm-.74 11.167h1.168L9.341 6.386H8.087z"/></g></g><defs><clipPath id="a"><rect width="24" height="24" fill="#fff" rx="8"/></clipPath><clipPath id="b"><path fill="#fff" d="M5 4h15v15H5z"/></clipPath></defs></svg>