<svg width="185" height="174" viewBox="0 0 185 174" fill="none" xmlns="http://www.w3.org/2000/svg">
<path d="M83.6842 43.1522C73.9073 44.0939 63.8276 52.6568 61.3016 62.0842L45.9174 119.499C43.4741 128.617 46.2921 142.21 52.1631 149.663L78.7444 183.372C87.4453 194.482 105.373 199.286 118.463 194.014L158.338 178.113C167.149 174.593 176.385 164.231 178.829 155.112L194.213 97.6978C196.76 88.193 192.312 75.7374 184.316 70.0335L149.628 45.2512C143.701 41.0958 133.192 38.2798 126.137 38.9567L83.6842 43.1522Z" stroke="#7558E3" stroke-width="12" stroke-linecap="round" stroke-linejoin="round"/>
<path fill-rule="evenodd" clip-rule="evenodd" d="M116.54 121.439C108.005 119.152 102.94 110.379 105.227 101.843C107.514 93.3078 116.287 88.2425 124.823 90.5295C133.358 92.8166 138.423 101.59 136.136 110.125C133.849 118.661 125.076 123.726 116.54 121.439Z" stroke="#7558E3" stroke-width="12" stroke-linecap="round" stroke-linejoin="round"/>
<path d="M116.54 121.439L110.329 144.621" stroke="#7558E3" stroke-width="12" stroke-linecap="round" stroke-linejoin="round"/>
</svg>
